<svg id="Capa_1" enable-background="new 0 0 512 512" height="512" viewBox="0 0 512 512" width="512" xmlns="http://www.w3.org/2000/svg"><g><path d="m273.584 467.87c-5.306 3.211-11.386 4.908-17.584 4.908-6.2 0-12.281-1.698-17.587-4.91-10.84-6.561-67.65-41.815-121.276-91.418-73.986-68.434-110.88-134.488-109.605-196.261 1.63-78.941 67.4-142.197 146.347-140.949 38.795.613 74.913 16.636 101.119 43.695.551.569 1.453.569 2.004 0 26.205-27.059 62.321-43.081 101.114-43.695 78.946-1.25 144.717 62.001 146.352 140.94 1.279 61.776-35.615 127.832-109.604 196.27-53.626 49.603-110.436 84.857-121.28 91.42z" fill="#f9c6da"/><path d="m474.416 183.289c0-62.951-51.032-113.983-113.983-113.983-43.856 0-81.927 24.768-100.988 61.08-1.467 2.795-5.423 2.795-6.89 0-19.061-36.311-57.132-61.08-100.988-61.08-62.951 0-113.983 51.032-113.983 113.983 0 124.352 194.477 245.569 216.41 258.844 1.235.747 2.776.747 4.01 0 21.935-13.275 216.412-134.492 216.412-258.844z" fill="#dd5790"/><path d="m390.371 73.279c26.802 20.856 44.044 53.419 44.044 90.01 0 120.224-181.78 237.518-213.669 257.169 16.426 11.338 28.642 18.887 33.249 21.675 1.235.747 2.776.747 4.01 0 21.933-13.275 216.41-134.492 216.41-258.844.001-52.59-35.616-96.862-84.044-110.01z" fill="#da387d"/><path d="m284.776 51.88c-10.416 5.995-20.071 13.208-28.773 21.488-27.58-26.286-63.565-41.02-102.004-41.627-83.02-1.297-152.246 65.042-153.965 148.293-1.322 64.015 36.364 131.951 112.011 201.922 54.158 50.095 111.534 85.7 122.485 92.328 13.192 7.988 29.729 7.996 42.939.003 10.952-6.629 68.331-42.236 122.489-92.331 75.649-69.975 113.335-137.914 112.009-201.931-1.714-82.849-70.541-149.597-153.968-148.284-12.702.201-25.326 1.984-37.521 5.301-3.997 1.087-6.355 5.209-5.269 9.206 1.088 3.999 5.212 6.353 9.206 5.269 10.989-2.989 22.368-4.597 33.821-4.778 74.927-1.188 137.186 58.744 138.734 133.597 1.232 59.542-34.834 123.672-107.198 190.608-53.096 49.111-109.336 84.012-120.07 90.51-8.421 5.095-18.974 5.103-27.405-.002-10.734-6.498-66.972-41.396-120.067-90.508-72.362-66.932-108.429-131.059-107.199-190.6 1.545-74.854 63.776-134.748 138.73-133.605 36.504.577 70.545 15.285 95.85 41.414 1.667 1.722 3.997 2.709 6.39 2.709s4.723-.988 6.39-2.709c8.83-9.118 18.879-16.947 29.868-23.272 3.59-2.066 4.825-6.652 2.759-10.242-2.067-3.591-6.654-4.823-10.242-2.759z"/><path d="m369.343 348.859c-48.405 44.773-99.503 77.222-113.343 85.713-14.933-9.159-71.164-44.912-121.922-93.81-2.985-2.875-7.731-2.785-10.605.198s-2.785 7.731.198 10.605c54.373 52.38 114.866 89.979 126.44 96.984 3.632 2.198 8.145 2.2 11.778 0 10.516-6.365 65.608-40.551 117.639-88.679 67.939-62.842 102.388-122.253 102.388-176.582 0-66.986-54.497-121.482-121.482-121.482-43.121 0-82.557 22.591-104.433 59.38-21.877-36.79-61.312-59.38-104.433-59.38-66.986 0-121.483 54.497-121.483 121.482 0 43.84 22.75 91.43 67.618 141.446 2.767 3.083 7.508 3.34 10.591.575 3.083-2.766 3.34-7.508.575-10.591-42.324-47.18-63.784-91.399-63.784-131.429 0-58.714 47.768-106.482 106.483-106.482 39.718 0 75.87 21.866 94.347 57.066 1.979 3.769 5.843 6.109 10.085 6.11 4.186 0 8.081-2.29 10.087-6.11 18.477-35.199 54.628-57.065 94.347-57.065 58.715 0 106.482 47.768 106.482 106.482-.001 49.272-33.741 106.525-97.573 165.569z"/></g></svg>