<svg id="Capa_1" enable-background="new 0 0 511.999 511.999" height="512" viewBox="0 0 511.999 511.999" width="512" xmlns="http://www.w3.org/2000/svg"><g><g><g clip-rule="evenodd" fill-rule="evenodd"><circle cx="105.022" cy="76.544" fill="#c4e5f9" r="46.545"/><path d="m40.771 153.089c-16.5 0-30 13.5-30 30v158.205l30 15v125.706h64.251 64.251v-125.706l30-15v-158.205c0-16.498-13.5-30-30-30z" fill="#c4e5f9"/><path d="m326.77 183.089-30 210.705 45 7.5v80.706h56.751 56.751v-80.706l45-7.5-30-210.705c-2.325-16.334-13.504-30-30-30h-83.502c-16.496 0-27.676 13.67-30 30z" fill="#e08ea2"/><ellipse cx="398.52" cy="76.544" fill="#e08ea2" rx="46.545" ry="46.545" transform="matrix(.138 -.991 .991 .138 267.793 460.716)"/><path d="m40.771 153.089c-16.5 0-30 13.5-30 30v158.205l30 15v125.706h22.5v-140.706l-30-15v-143.205c0-16.5 13.5-30 30-30z" fill="#a4d7f5"/><path d="m326.77 183.089-30 210.705 45 7.5v80.706h22.5v-95.706l-45-7.5 27.888-195.705c2.325-16.33 13.505-30 30-30h-20.388c-16.496 0-27.676 13.67-30 30z" fill="#d15573"/><path d="m58.477 76.544c0 30.433 28.635 52.413 57.795 45.173-46.744-11.604-46.744-78.742 0-90.346-29.161-7.24-57.795 14.74-57.795 45.173z" fill="#a4d7f5"/><path d="m351.976 76.544c0 30.433 28.635 52.413 57.795 45.173-46.744-11.604-46.744-78.742 0-90.346-29.161-7.24-57.795 14.74-57.795 45.173z" fill="#d15573"/></g><g><path d="m341.77 375.137h-15v-15h15zm97.831-141.433-2.115-14.85 14.85-2.115 2.115 14.85zm-4.229-29.701-2.226-15.629 14.85-2.115 2.226 15.629z" fill="#fff"/></g><g><path d="m48.271 326.294h-15v-15h15zm128.501-97.954h-15v-15h15zm0-30h-15v-15h15z" fill="#fff"/></g></g><g><path d="m105.022 130.589c29.801 0 54.045-24.245 54.045-54.045 0-11.423-3.524-22.347-10.192-31.588l-12.164 8.776c4.813 6.67 7.356 14.559 7.356 22.812 0 21.529-17.516 39.045-39.045 39.045s-39.045-17.515-39.045-39.045 17.516-39.044 39.045-39.044c8.254 0 16.142 2.543 22.811 7.355l8.777-12.164c-9.24-6.667-20.163-10.191-31.588-10.191-29.801 0-54.045 24.245-54.045 54.045s24.244 54.044 54.045 54.044z"/><path d="m161.772 474.5h-49.25v-118.207h-15v118.207h-49.251v-122.841l-30-15v-93.571h-15v102.841l30 15v128.571h143.501v-45h-15z"/><path d="m169.272 145.589h-128.501c-20.678 0-37.5 16.822-37.5 37.5v44.999h15v-44.999c0-12.407 10.094-22.5 22.5-22.5h128.501c12.406 0 22.5 10.093 22.5 22.5v153.57l-30 15v77.841h15v-68.571l30-15v-162.84c0-20.678-16.822-37.5-37.5-37.5z"/><path d="m477.696 182.032c-3.054-21.457-18.444-36.443-37.425-36.443h-83.501c-18.981 0-34.371 14.986-37.425 36.443l-6.417 45.071 14.85 2.114 6.417-45.071c1.669-11.725 9.297-23.557 22.575-23.557h83.501c13.278 0 20.906 11.832 22.575 23.557l28.968 203.454-44.043 7.34v34.56h15v-21.854l45.957-7.659z"/><path d="m447.771 474.5h-41.751v-73.207h-15v73.207h-41.75v-79.561l-44.043-7.339 20.436-143.532-14.85-2.114-22.5 158.033 45.957 7.659v81.854h128.501v-45h-15z"/><path d="m398.52 130.589c29.801 0 54.045-24.245 54.045-54.045 0-11.423-3.524-22.346-10.191-31.587l-12.164 8.775c4.812 6.671 7.355 14.559 7.355 22.812 0 21.529-17.516 39.045-39.045 39.045s-39.044-17.516-39.044-39.045 17.515-39.044 39.044-39.044c8.255 0 16.143 2.543 22.812 7.355l8.777-12.164c-9.24-6.667-20.164-10.191-31.589-10.191-29.8 0-54.044 24.245-54.044 54.045s24.244 54.044 54.044 54.044z"/><path d="m248.021 0h15v511.999h-15z"/></g></g></svg>