<?xml version="1.0" encoding="iso-8859-1"?>
<!-- Generator: Adobe Illustrator 19.0.0, SVG Export Plug-In . SVG Version: 6.00 Build 0)  -->
<svg version="1.1" id="Capa_1" xmlns="http://www.w3.org/2000/svg" xmlns:xlink="http://www.w3.org/1999/xlink" x="0px" y="0px"
	 viewBox="0 0 512 512" style="enable-background:new 0 0 512 512;" xml:space="preserve">
<g>
	<g>
		<path d="M255.947,417c-26.191,0-47.5,21.309-47.5,47.5c0,26.191,21.309,47.5,47.5,47.5c26.191,0,47.5-21.309,47.5-47.5
			C303.447,438.309,282.139,417,255.947,417z M255.947,497c-17.92,0-32.5-14.579-32.5-32.5c0-17.921,14.58-32.5,32.5-32.5
			c17.92,0,32.5,14.579,32.5,32.5C288.447,482.421,273.868,497,255.947,497z"/>
	</g>
</g>
<g>
	<g>
		<path d="M383.553,244.708l-0.107-117.297C383.398,57.156,326.202,0,255.947,0c-70.304,0-127.5,57.196-127.5,127.5v60.026
			c0.073,20.546,16.919,37.262,37.579,37.262c20.707-0.074,37.494-16.909,37.421-37.5V127.5c0-28.948,23.551-52.5,52.5-52.5
			c28.929,0,52.48,23.535,52.5,52.465l0.04,43.628c0.004,4.14,3.361,7.493,7.5,7.493c4.149-0.004,7.504-3.364,7.5-7.507
			l-0.04-43.626C323.421,90.259,293.141,60,255.947,60c-37.219,0-67.5,30.28-67.5,67.5v59.814
			c0.044,12.348-10.038,22.429-22.448,22.474c-12.392,0-22.508-10.011-22.552-22.288v-60c0-62.033,50.467-112.5,112.5-112.5
			c61.989,0,112.457,50.432,112.5,112.423l0.107,117.291c0,45.459-37.025,82.469-82.535,82.5c-1.989,0.001-3.897,0.793-5.302,2.201
			c-1.406,1.408-2.194,3.316-2.192,5.307l0.03,29.965C278.51,376.99,268.418,387,256.057,387h-0.083
			c-6.015-0.021-11.66-2.375-15.896-6.625c-4.228-4.244-6.545-9.872-6.523-15.875v-30.001c0-28.889,23.551-52.392,52.505-52.392
			c20.663-0.015,37.473-16.789,37.473-37.401l-0.046-43.628c-0.004-4.14-3.361-7.492-7.5-7.492c-4.15,0.005-7.504,3.366-7.5,7.508
			l0.046,43.62c0,12.339-10.086,22.385-22.479,22.394c-37.22,0-67.5,30.231-67.5,67.392v29.974
			c-0.036,9.993,3.834,19.4,10.898,26.489c7.057,7.082,16.456,11.002,26.495,11.038h0.109c20.602,0,37.424-16.714,37.498-37.294
			l-0.022-22.783C343.814,338.05,383.553,295.918,383.553,244.708z"/>
	</g>
</g>
<g>
</g>
<g>
</g>
<g>
</g>
<g>
</g>
<g>
</g>
<g>
</g>
<g>
</g>
<g>
</g>
<g>
</g>
<g>
</g>
<g>
</g>
<g>
</g>
<g>
</g>
<g>
</g>
<g>
</g>
</svg>
